<svg xmlns="http://www.w3.org/2000/svg" xmlns:xlink="http://www.w3.org/1999/xlink" preserveAspectRatio="xMidYMid" width="157" height="38" viewBox="0 0 157 38">
  <defs>
    <style>

      .cls-2 {
        fill: #323232;
    }
    </style>
  </defs>
  <path d="M148.132,16.187 C145.990,16.187 144.544,16.830 144.544,18.490 C144.544,22.506 156.432,20.953 156.432,29.789 C156.432,35.358 151.613,37.661 146.151,37.661 C142.188,37.661 138.921,36.483 136.833,35.197 C136.833,35.197 138.814,30.539 138.814,30.539 C140.742,31.770 143.152,32.627 145.722,32.627 C148.293,32.627 150.167,31.877 150.167,29.950 C150.167,25.665 138.279,27.272 138.279,18.811 C138.279,14.313 141.920,11.153 147.864,11.153 C150.702,11.153 153.219,11.635 155.308,12.385 C155.308,12.385 155.308,17.793 155.308,17.793 C153.166,16.883 150.810,16.187 148.132,16.187 ZM123.122,37.661 C119.159,37.661 115.893,36.483 113.804,35.197 C113.804,35.197 115.786,30.539 115.786,30.539 C117.714,31.770 120.123,32.627 122.694,32.627 C125.264,32.627 127.138,31.877 127.138,29.950 C127.138,25.665 115.250,27.272 115.250,18.811 C115.250,14.313 118.892,11.153 124.836,11.153 C127.674,11.153 130.191,11.635 132.279,12.385 C132.279,12.385 132.279,17.793 132.279,17.793 C130.137,16.883 127.781,16.187 125.104,16.187 C122.962,16.187 121.516,16.830 121.516,18.490 C121.516,22.506 133.404,20.953 133.404,29.789 C133.404,35.358 128.584,37.661 123.122,37.661 ZM101.272,32.627 C103.789,32.627 105.824,31.931 107.644,30.913 C107.644,30.913 109.572,35.305 109.572,35.305 C106.895,36.965 103.735,37.661 100.629,37.661 C91.418,37.661 87.670,31.342 87.670,24.487 C87.670,16.883 91.847,11.153 99.076,11.153 C106.198,11.153 110.322,16.294 110.322,24.702 C110.322,24.702 110.322,26.201 110.322,26.201 C110.322,26.201 94.096,26.201 94.096,26.201 C94.257,30.110 97.041,32.627 101.272,32.627 ZM103.842,21.756 C103.789,18.864 102.343,16.026 98.969,16.026 C95.810,16.026 94.096,18.704 94.042,21.756 C94.042,21.756 103.842,21.756 103.842,21.756 ZM75.887,22.345 C75.887,19.239 75.245,16.722 71.978,16.722 C69.890,16.722 67.640,17.847 65.766,19.400 C65.766,19.400 65.766,37.125 65.766,37.125 C65.766,37.125 59.394,37.125 59.394,37.125 C59.394,37.125 59.394,11.796 59.394,11.796 C59.394,11.796 64.856,11.796 64.856,11.796 C64.856,11.796 65.498,14.634 65.498,14.634 C68.176,12.545 71.014,11.153 74.174,11.153 C78.190,11.153 82.313,13.135 82.313,20.364 C82.313,20.364 82.313,37.125 82.313,37.125 C82.313,37.125 75.887,37.125 75.887,37.125 C75.887,37.125 75.887,22.345 75.887,22.345 ZM49.486,32.520 C50.985,32.520 52.378,31.931 53.342,31.288 C53.342,31.288 55.269,35.679 55.269,35.679 C53.449,36.911 50.396,37.661 47.879,37.661 C43.381,37.661 40.650,35.090 40.650,30.860 C40.650,30.860 40.650,16.776 40.650,16.776 C40.650,16.776 36.098,16.776 36.098,16.776 C36.098,16.776 36.098,11.796 36.098,11.796 C36.098,11.796 40.650,11.796 40.650,11.796 C40.650,11.796 40.650,5.905 40.650,5.905 C40.650,5.905 47.023,4.031 47.023,4.031 C47.023,4.031 47.023,11.796 47.023,11.796 C47.023,11.796 54.680,11.796 54.680,11.796 C54.680,11.796 53.127,16.776 53.127,16.776 C53.127,16.776 47.023,16.776 47.023,16.776 C47.023,16.776 47.023,29.307 47.023,29.307 C47.023,31.663 47.826,32.520 49.486,32.520 ZM28.333,7.672 C26.084,7.672 24.424,6.012 24.424,3.870 C24.424,1.728 26.084,0.015 28.333,0.015 C30.582,0.015 32.296,1.675 32.296,3.870 C32.296,5.959 30.582,7.672 28.333,7.672 ZM6.429,7.297 C6.429,7.297 6.429,16.508 6.429,16.508 C6.429,16.508 17.675,16.508 17.675,16.508 C17.675,16.508 17.675,21.970 17.675,21.970 C17.675,21.970 6.429,21.970 6.429,21.970 C6.429,21.970 6.429,37.125 6.429,37.125 C6.429,37.125 0.003,37.125 0.003,37.125 C0.003,37.125 0.003,1.835 0.003,1.835 C0.003,1.835 19.656,1.835 19.656,1.835 C19.656,1.835 17.889,7.297 17.889,7.297 C17.889,7.297 6.429,7.297 6.429,7.297 ZM31.546,37.125 C31.546,37.125 25.120,37.125 25.120,37.125 C25.120,37.125 25.120,11.796 25.120,11.796 C25.120,11.796 31.546,11.796 31.546,11.796 C31.546,11.796 31.546,37.125 31.546,37.125 Z" id="path-1" class="cls-2" fill-rule="evenodd"/>
</svg>
